<svg xmlns="http://www.w3.org/2000/svg" width="600" height="600" viewBox="0 0 600 600">
  <defs>
    <linearGradient id="bg" x1="0" y1="0" x2="1" y2="1">
      <stop offset="0" stop-color="#16130F"/><stop offset="1" stop-color="#0B0A09"/>
    </linearGradient>
    <radialGradient id="glow" cx="0.5" cy="0.38" r="0.6">
      <stop offset="0" stop-color="#C9A227" stop-opacity="0.28"/><stop offset="1" stop-color="#C9A227" stop-opacity="0"/>
    </radialGradient>
  </defs>
  <rect width="600" height="600" fill="url(#bg)"/>
  <rect width="600" height="600" fill="url(#glow)"/>
  <g opacity="0.5">
    <rect x="-80" y="120" width="760" height="26" fill="#C9A227" opacity="0.05" transform="rotate(-14 300 300)"/>
    <rect x="-80" y="330" width="760" height="14" fill="#C9A227" opacity="0.05" transform="rotate(-14 300 300)"/>
  </g>
  <rect x="26" y="26" width="548" height="548" fill="none" stroke="#C9A227" stroke-opacity="0.35" stroke-width="2"/>
  <text x="548" y="118" text-anchor="middle" font-family="'Hiragino Mincho ProN','Yu Mincho','Noto Serif JP',serif" font-size="22" font-weight="700" fill="#C9A227">巻</text>
  <text x="548" y="148" text-anchor="middle" font-family="'Hiragino Mincho ProN','Yu Mincho','Noto Serif JP',serif" font-size="22" font-weight="700" fill="#C9A227">物</text>
  <g>
  <rect x="216" y="140" width="168" height="180" rx="10" fill="#E7E5E4"/>
  <rect x="200" y="132" width="26" height="196" rx="12" fill="#B45309"/>
  <rect x="374" y="132" width="26" height="196" rx="12" fill="#B45309"/>
  <text x="300" y="248" text-anchor="middle" font-family="'Hiragino Mincho ProN','Yu Mincho','Noto Serif JP',serif" font-size="92" font-weight="900" fill="#1C1917">封</text>
  <path d="M 240 292 Q 300 312 360 292" stroke="#DC2626" stroke-width="5" fill="none"/></g>
  <text x="288" y="462" text-anchor="middle" font-family="'Arial Black','Helvetica Neue',Arial,sans-serif" font-size="46" font-weight="900" letter-spacing="4" fill="#F5F5F4">SCROLL</text>
  <text x="288" y="500" text-anchor="middle" font-family="'Hiragino Mincho ProN','Yu Mincho','Noto Serif JP',serif" font-size="24" font-weight="700" fill="#C9A227">巻物</text>
  <text x="288" y="530" text-anchor="middle" font-family="Arial, sans-serif" font-size="12" font-weight="700" letter-spacing="4" fill="#A8A29E">INFINITE STORAGE</text>
  <text x="288" y="566" text-anchor="middle" font-family="Arial, sans-serif" font-size="11" font-weight="700" letter-spacing="5" fill="#C9A227" opacity="0.8">ANIMETHREADS · 武士道</text>
</svg>