<svg xmlns="http://www.w3.org/2000/svg" width="600" height="600" viewBox="0 0 600 600">
  <defs>
    <linearGradient id="bg" x1="0" y1="0" x2="1" y2="1">
      <stop offset="0" stop-color="#16130F"/><stop offset="1" stop-color="#0B0A09"/>
    </linearGradient>
    <radialGradient id="glow" cx="0.5" cy="0.38" r="0.6">
      <stop offset="0" stop-color="#EF4444" stop-opacity="0.28"/><stop offset="1" stop-color="#EF4444" stop-opacity="0"/>
    </radialGradient>
  </defs>
  <rect width="600" height="600" fill="url(#bg)"/>
  <rect width="600" height="600" fill="url(#glow)"/>
  <g opacity="0.5">
    <rect x="-80" y="120" width="760" height="26" fill="#EF4444" opacity="0.05" transform="rotate(-14 300 300)"/>
    <rect x="-80" y="330" width="760" height="14" fill="#EF4444" opacity="0.05" transform="rotate(-14 300 300)"/>
  </g>
  <rect x="26" y="26" width="548" height="548" fill="none" stroke="#EF4444" stroke-opacity="0.35" stroke-width="2"/>
  <text x="548" y="118" text-anchor="middle" font-family="'Hiragino Mincho ProN','Yu Mincho','Noto Serif JP',serif" font-size="22" font-weight="700" fill="#EF4444">ブ</text>
  <text x="548" y="148" text-anchor="middle" font-family="'Hiragino Mincho ProN','Yu Mincho','Noto Serif JP',serif" font-size="22" font-weight="700" fill="#EF4444">リ</text>
  <text x="548" y="178" text-anchor="middle" font-family="'Hiragino Mincho ProN','Yu Mincho','Noto Serif JP',serif" font-size="22" font-weight="700" fill="#EF4444">ー</text>
  <text x="548" y="208" text-anchor="middle" font-family="'Hiragino Mincho ProN','Yu Mincho','Noto Serif JP',serif" font-size="22" font-weight="700" fill="#EF4444">チ</text>
  <g>
  <path d="M 199 416 L 199 314 Q 300 280 401 314 L 401 416 Z" fill="#0B0A09"/>
  <path d="M 268 292 L 300 322 L 332 292" stroke="#E7E5E4" stroke-width="5" fill="none"/>
  <rect x="281" y="266" width="38" height="20" fill="#F2CFAE"/>
  <circle cx="300" cy="212" r="60" fill="#F2CFAE"/>
  <polygon points="203.0,239.5 244.5,215.5 198.1,203.4 245.4,195.5 206.2,167.9 253.3,177.1 226.3,137.5 267.1,162.7 255.7,116.1 285.1,154.0 290.9,106.4 305.0,152.2 327.1,109.7 324.3,157.5 360.0,125.5 340.5,169.3 385.1,151.8 351.5,186.0 399.4,185.3 355.9,205.5 401.1,221.7 353.3,225.3" fill="#F97316"/></g>
  <text x="288" y="462" text-anchor="middle" font-family="'Arial Black','Helvetica Neue',Arial,sans-serif" font-size="46" font-weight="900" letter-spacing="4" fill="#F5F5F4">SOUL REAPER</text>
  <text x="288" y="500" text-anchor="middle" font-family="'Hiragino Mincho ProN','Yu Mincho','Noto Serif JP',serif" font-size="24" font-weight="700" fill="#EF4444">死神</text>
  <text x="288" y="530" text-anchor="middle" font-family="Arial, sans-serif" font-size="12" font-weight="700" letter-spacing="4" fill="#A8A29E">BANKAI</text>
  <text x="288" y="566" text-anchor="middle" font-family="Arial, sans-serif" font-size="11" font-weight="700" letter-spacing="5" fill="#EF4444" opacity="0.8">ANIMETHREADS · 武士道</text>
</svg>