<svg xmlns="http://www.w3.org/2000/svg" width="600" height="600" viewBox="0 0 600 600">
  <defs>
    <linearGradient id="bg" x1="0" y1="0" x2="1" y2="1">
      <stop offset="0" stop-color="#16130F"/><stop offset="1" stop-color="#0B0A09"/>
    </linearGradient>
    <radialGradient id="glow" cx="0.5" cy="0.38" r="0.6">
      <stop offset="0" stop-color="#84CC16" stop-opacity="0.28"/><stop offset="1" stop-color="#84CC16" stop-opacity="0"/>
    </radialGradient>
  </defs>
  <rect width="600" height="600" fill="url(#bg)"/>
  <rect width="600" height="600" fill="url(#glow)"/>
  <g opacity="0.5">
    <rect x="-80" y="120" width="760" height="26" fill="#84CC16" opacity="0.05" transform="rotate(-14 300 300)"/>
    <rect x="-80" y="330" width="760" height="14" fill="#84CC16" opacity="0.05" transform="rotate(-14 300 300)"/>
  </g>
  <rect x="26" y="26" width="548" height="548" fill="none" stroke="#84CC16" stroke-opacity="0.35" stroke-width="2"/>
  <text x="548" y="118" text-anchor="middle" font-family="'Hiragino Mincho ProN','Yu Mincho','Noto Serif JP',serif" font-size="22" font-weight="700" fill="#84CC16">進</text>
  <text x="548" y="148" text-anchor="middle" font-family="'Hiragino Mincho ProN','Yu Mincho','Noto Serif JP',serif" font-size="22" font-weight="700" fill="#84CC16">撃</text>
  <text x="548" y="178" text-anchor="middle" font-family="'Hiragino Mincho ProN','Yu Mincho','Noto Serif JP',serif" font-size="22" font-weight="700" fill="#84CC16">の</text>
  <text x="548" y="208" text-anchor="middle" font-family="'Hiragino Mincho ProN','Yu Mincho','Noto Serif JP',serif" font-size="22" font-weight="700" fill="#84CC16">巨</text>
  <text x="548" y="238" text-anchor="middle" font-family="'Hiragino Mincho ProN','Yu Mincho','Noto Serif JP',serif" font-size="22" font-weight="700" fill="#84CC16">人</text>
  <g>
  <path d="M 292 140 Q 208 170 176 260 Q 244 250 282 296 Z" fill="#E7E5E4"/>
  <path d="M 308 140 Q 392 170 424 260 Q 356 250 318 296 Z" fill="#1E3A8A"/>
  <path d="M 292 168 Q 240 190 220 244 Q 262 232 288 268 Z" fill="#1E3A8A"/>
  <path d="M 308 168 Q 360 190 380 244 Q 338 232 312 268 Z" fill="#E7E5E4"/>
  <path d="M 300 150 L 300 320" stroke="#94A3B8" stroke-width="6" stroke-linecap="round"/></g>
  <text x="288" y="462" text-anchor="middle" font-family="'Arial Black','Helvetica Neue',Arial,sans-serif" font-size="46" font-weight="900" letter-spacing="4" fill="#F5F5F4">RECON</text>
  <text x="288" y="500" text-anchor="middle" font-family="'Hiragino Mincho ProN','Yu Mincho','Noto Serif JP',serif" font-size="24" font-weight="700" fill="#84CC16">調査兵団</text>
  <text x="288" y="530" text-anchor="middle" font-family="Arial, sans-serif" font-size="12" font-weight="700" letter-spacing="4" fill="#A8A29E">BEYOND THE WALLS</text>
  <text x="288" y="566" text-anchor="middle" font-family="Arial, sans-serif" font-size="11" font-weight="700" letter-spacing="5" fill="#84CC16" opacity="0.8">ANIMETHREADS · 武士道</text>
</svg>